<?xml version="1.0" encoding="utf-8"?>
<!-- Generator: Adobe Illustrator 18.1.1, SVG Export Plug-In . SVG Version: 6.00 Build 0)  -->
<!DOCTYPE svg PUBLIC "-//W3C//DTD SVG 1.1 Tiny//EN" "http://www.w3.org/Graphics/SVG/1.1/DTD/svg11-tiny.dtd">
<svg version="1.1" baseProfile="tiny" id="Layer_1" xmlns="http://www.w3.org/2000/svg" xmlns:xlink="http://www.w3.org/1999/xlink"
	 x="0px" y="0px" viewBox="0 0 145 85" xml:space="preserve">
<g>
	<g>
		<g>
			<g>
				<g>
					<path fill="#FFFFFF" d="M26.1,62.8l5.6-6.9h4.7l-2.3,16.6h-4.4L31.1,62l-5.9,7l-3.9-7L20,72.5h-4.4l2.3-16.6h4.7L26.1,62.8z"/>
					<path fill="#FFFFFF" d="M49,55.9l5.3,16.6h-4.5l-1-3.3h-7.6l-1.7,3.3H35l9.1-16.6H49z M47.8,65.9l-1.7-6l-3.1,6H47.8z"/>
					<path fill="#FFFFFF" d="M57.5,55.9h8.6c1.8,0,3.2,0.5,4.1,1.5s1.3,2.5,1.1,3.8c-0.2,1.4-0.9,2.9-2.1,3.9s-2.7,1.5-4.5,1.5h-4.2
						l-0.8,6h-4.4L57.5,55.9z M61.5,59.3L61,63.2h2.7c1.8,0,2.9-0.6,3-1.9c0.1-0.7-0.1-1.2-0.5-1.5c-0.5-0.3-1.3-0.4-2.5-0.4
						L61.5,59.3L61.5,59.3z"/>
					<path fill="#FFFFFF" d="M101.8,69.1l-0.5,3.4H87.8l2.3-16.6h13.6l-0.5,3.4h-9.1l-0.4,3.3h8.4l-0.5,3.3h-8.4l-0.5,3.3h9.1V69.1z
						"/>
					<path fill="#FFFFFF" d="M70.8,55.9c1,0.4,2,2,2.1,3.4h4.6l-1.8,13.2h4.4l1.8-13.2H88l0.5-3.4L70.8,55.9L70.8,55.9z"/>
				</g>
				<path fill="#FFFFFF" d="M107.6,72.5h-4.4l2.3-16.6h4.4L107.6,72.5z"/>
				<path fill="#FFFFFF" d="M122.8,55.9c-3.2,5.5-7.9,8.3-7.9,8.3l6.2,8.3h-5.6l-6.6-8.8c0,0,5.6-3.6,8.4-7.8L122.8,55.9L122.8,55.9
					z"/>
			</g>
		</g>
		<path fill="#FFFFFF" d="M109.9,20.2c0.8,1.1,1.3,2.5,1.6,3.9c0.7-0.3,1.5-0.7,2.4-1c1-0.3,1.7-0.5,2.3-0.6c-0.4-1.8-1-3.6-2-5.1
			c-2.2-3.3-5.3-4.9-9.5-4.9c-5.8,0-13.3,4.6-21.2,13.1c-7.3,7.8-14.5,18.3-19.6,29c0,0,1.4,0,2.7,0c1.6,0,2.7,0.5,2.7,0.5l0.3-0.5
			C74.6,45,81,35.8,87.6,28.8c6.7-7.2,12.8-11.1,17-11.1C107.1,17.6,108.8,18.5,109.9,20.2z"/>
		<path fill="#FFFFFF" d="M125.4,27.4c-1.6-2.5-4.2-3.8-7.3-3.8c-0.2,0-2.1,0.1-4.4,0.9c-0.9,0.3-1.8,0.7-2.5,1.1
			c-8,4.3-15.7,13.6-18.1,18c-2.6,4.8-2.9,7.2-0.9,9.1c1,1,2.8,1.4,5.3,1.4c3.3,0,7.3-0.9,9.2-1.6c2.4-0.9,4.1-2.1,5.7-3.8
			c3.4-3.8,4.8-10,4.6-18.7c-0.7,0.1-1.5,0.4-2.5,0.9c-1.1,0.6-1.9,1.1-2.4,1.5c0,6.4-1.4,13.5-6.8,15.7c-0.6,0.2-3.7,1.4-5.8,1.4
			c-1.1,0-2.1-0.2-2.4-0.9c-0.5-0.9,0.2-2.4,1.6-4.5c3.4-4.8,6.5-8.2,9.8-11c0.6-0.5,1.2-1,1.8-1.4c0.3-0.2,2.3-1.7,4.2-2.5
			c1.1-0.5,2.2-0.8,3.4-0.8c0.8,0,1.3,0.2,1.3,0.2c0.7,0.2,1.3,0.7,1.7,1.4c1.1,1.7,1.8,5.8,1.3,10.6c-0.5,5.1-2.3,10-4.3,13.6h5.5
			c2.1-4.1,3.7-9.5,4.1-15C127.8,34.2,126.8,29.7,125.4,27.4z"/>
		<path fill="#FFFFFF" d="M125.4,56.2h-0.8l0.1-0.3h2l-0.1,0.3h-0.8l-0.4,1.9h-0.3L125.4,56.2z"/>
		<path fill="#FFFFFF" d="M129.1,55.9h0.4l-0.5,2.2h-0.3l0.4-1.8l0,0l-1.2,1.8h-0.3l-0.5-1.8l0,0l-0.4,1.8h-0.3l0.5-2.2h0.5l0.5,1.8
			L129.1,55.9z"/>
	</g>
</g>
<g>
</g>
<g>
</g>
<g>
</g>
<g>
</g>
<g>
</g>
<g>
</g>
<g>
</g>
<g>
</g>
<g>
</g>
<g>
</g>
<g>
</g>
</svg>
